<svg width="800" height="489" viewBox="0 0 800 489" fill="none" xmlns="http://www.w3.org/2000/svg">
<g clip-path="url(#clip0_104_101)">
<path d="M543.92 390.248C526.591 394.814 465.707 392.271 449.187 381.289C443.757 377.648 438.327 367.822 447.396 355.222C459.469 338.345 492.452 332.103 492.452 332.103C492.452 332.103 464.552 314.127 403.207 343.662C351.219 368.92 386.397 417.24 404.997 425.505C448.552 445.099 564.426 456.658 642.292 393.196C701.847 344.587 715.537 286.904 643.159 227.603C625.31 212.922 527.226 135.762 616.992 93.5109C650.917 78.3147 688.358 72.7173 725.242 77.3273C725.242 77.3273 728.823 126.283 770.355 108.827C813.91 90.5054 808.249 54.8437 761.402 41.3189C721.776 29.7592 628.833 22.9968 568.296 71.8943C568.296 71.8943 487.08 123.219 532.194 192.52C578.059 262.976 714.44 345.685 543.747 390.421" fill="white"/>
<path d="M243.535 458.49C251.329 473.957 305.765 489.481 298.549 443.196C295.605 424.324 298.549 390.735 338.266 272.482C340.055 267.115 377.924 266.191 383.351 267.115C454.124 278.657 438.422 220.367 394.896 220.367L348.714 221.291C350.504 198.206 395.589 36.2064 395.589 36.2064C395.589 36.2064 392.933 -32.0676 348.714 18.8926C272.11 107.597 153.019 242.587 153.019 242.587C120.576 247.088 92.6363 240.798 69.1991 238.143C51.0727 236.065 20.8814 262.555 69.1991 286.621C72.7782 288.468 115.381 292.912 115.381 292.912C115.381 292.912 28.7323 406.317 19.9578 415.378C11.1832 424.439 -12.5427 457.105 8.41231 468.358C21.3432 475.342 45.4155 475.573 47.205 464.78C51.4768 439.098 164.218 299.318 183.384 286.852L286.196 276.118L257.332 382.136C228.469 361.475 201.279 359.686 212.247 378.5C232.048 412.608 227.545 386.637 243.766 458.49M335.553 97.3241C331.223 115.388 296.76 226.716 296.76 226.716L216.519 235.661L335.553 97.3241Z" fill="white"/>
</g>
<defs>
<clipPath id="clip0_104_101">
<rect width="800" height="489" fill="white"/>
</clipPath>
</defs>
</svg>
